<svg width="35" height="35" viewBox="0 0 35 35" fill="none" xmlns="http://www.w3.org/2000/svg">
<g id="check_8367487 1">
<g id="Group">
<path id="Vector" d="M14.2564 20.4231L9.83423 15.9938L7.84033 17.9806L14.2564 24.3967L32.4578 6.19527L30.4711 4.2085L14.2564 20.4231Z" fill="#0F8D9F"/>
<path id="Vector_2" d="M24.0266 17.0406C24.1191 17.6459 24.1904 18.2084 24.1904 18.8279C24.1904 24.1687 19.8465 28.5055 14.5128 28.5055C9.17204 28.5055 4.83532 24.1616 4.83532 18.8279C4.83532 13.4872 9.17916 9.15043 14.5128 9.15043C16.9767 9.15043 18.8923 9.97647 20.8079 11.4648L22.8018 9.47088C20.3094 7.45562 17.7743 6.34473 14.5128 6.34473C7.61965 6.33761 2.01538 11.9419 2.01538 18.8279C2.01538 25.714 7.61965 31.3183 14.5057 31.3183C21.3918 31.3183 26.9961 25.714 26.9961 18.8279C26.9961 17.3183 26.7255 16.1504 26.3409 14.7262L24.0266 17.0406Z" fill="#AAD5FE"/>
</g>
</g>
</svg>
