<svg width="32" height="32" viewBox="0 0 32 32" fill="none" xmlns="http://www.w3.org/2000/svg">
<g id="4829869_arrow_next_right_icon 1">
<g id="Layer 2">
<path id="Vector" d="M21.9986 9.00002C21.9049 9.09298 21.8305 9.20359 21.7797 9.32545C21.7289 9.4473 21.7028 9.57801 21.7028 9.71002C21.7028 9.84203 21.7289 9.97274 21.7797 10.0946C21.8305 10.2165 21.9049 10.3271 21.9986 10.42L26.5986 15.02H3.05859C2.79338 15.02 2.53902 15.1254 2.35149 15.3129C2.16395 15.5005 2.05859 15.7548 2.05859 16.02C2.05859 16.2852 2.16395 16.5396 2.35149 16.7271C2.53902 16.9147 2.79338 17.02 3.05859 17.02H26.5786L21.9986 21.59C21.8123 21.7774 21.7078 22.0308 21.7078 22.295C21.7078 22.5592 21.8123 22.8127 21.9986 23C22.186 23.1863 22.4394 23.2908 22.7036 23.2908C22.9678 23.2908 23.2212 23.1863 23.4086 23L29.7686 16.64C29.8542 16.5579 29.9223 16.4593 29.9688 16.3502C30.0154 16.2411 30.0394 16.1237 30.0394 16.005C30.0394 15.8864 30.0154 15.769 29.9688 15.6599C29.9223 15.5507 29.8542 15.4522 29.7686 15.37L23.4186 9.00002C23.3256 8.90629 23.215 8.8319 23.0932 8.78113C22.9713 8.73036 22.8406 8.70422 22.7086 8.70422C22.5766 8.70422 22.4459 8.73036 22.324 8.78113C22.2022 8.8319 22.0916 8.90629 21.9986 9.00002Z" fill="white"/>
</g>
</g>
</svg>
