<svg width="50" height="50" viewBox="0 0 50 50" fill="none" xmlns="http://www.w3.org/2000/svg">
<g id="user_240411 1">
<g id="Group">
<path id="Vector" d="M21.2691 24.9952C14.3779 24.9952 8.77148 19.3889 8.77148 12.4976C8.77148 5.60625 14.3779 0 21.2691 0C28.1604 0 33.7668 5.60635 33.7668 12.4977C33.7668 19.389 28.1604 24.9952 21.2691 24.9952ZM21.2691 2.84131C15.9446 2.84131 11.6128 7.17314 11.6128 12.4977C11.6128 17.8222 15.9446 22.154 21.2691 22.154C26.5937 22.154 30.9255 17.8222 30.9255 12.4977C30.9255 7.17314 26.5937 2.84131 21.2691 2.84131Z" fill="#01499D"/>
<path id="Vector_2" d="M21.2693 20.0037C19.8434 20.0037 18.4177 19.461 17.3321 18.3754C16.7773 17.8207 16.7773 16.9211 17.3321 16.3662C17.8869 15.8114 18.7864 15.8114 19.3414 16.3662C20.4045 17.4292 22.1343 17.4292 23.1974 16.3662C23.7522 15.8114 24.6517 15.8114 25.2067 16.3662C25.7615 16.9209 25.7615 17.8205 25.2067 18.3754C24.121 19.4608 22.6952 20.0037 21.2693 20.0037Z" fill="#01499D"/>
<path id="Vector_3" d="M35.4048 42.5852C34.6201 42.5852 33.9841 41.9492 33.9841 41.1645C33.9841 35.7933 30.766 31.0177 25.7855 28.9983C25.0585 28.7035 24.7081 27.8749 25.0029 27.1479C25.2979 26.4208 26.1263 26.0706 26.8533 26.3653C32.9111 28.8217 36.8255 34.6308 36.8255 41.1646C36.8254 41.9492 36.1894 42.5852 35.4048 42.5852Z" fill="#01499D"/>
<path id="Vector_4" d="M26.3392 50.0001H11.2339C8.18838 50.0001 5.71094 47.5226 5.71094 44.4771V41.1647C5.71094 34.6308 9.62529 28.8217 15.6831 26.3654C16.4104 26.0708 17.2388 26.4211 17.5335 27.148C17.8283 27.8751 17.4779 28.7037 16.7509 28.9984C11.7703 31.0178 8.55225 35.7935 8.55225 41.1646V44.477C8.55225 45.9556 9.75527 47.1586 11.2339 47.1586H26.3392C27.1238 47.1586 27.7599 47.7947 27.7599 48.5794C27.7599 49.364 27.1238 50.0001 26.3392 50.0001Z" fill="#01499D"/>
</g>
<path id="Vector_5" d="M30.0144 32.874C32.3545 32.874 33.4045 34.1857 33.8176 34.9562C33.8694 35.0529 34.0103 35.0527 34.0621 34.9561C34.4738 34.1856 35.518 32.8742 37.858 32.8742C40.5236 32.8742 42.8684 34.6938 42.8684 38.0166C42.8684 39.3611 42.5943 40.5131 41.8338 41.7985C40.284 44.4183 35.1784 47.8144 34.1297 48.4836C34.0138 48.5576 33.8669 48.5577 33.7508 48.484C32.7012 47.818 27.5946 44.4387 26.0327 41.7985C25.2723 40.513 25 39.3611 25 38.0166C25.0001 34.6938 27.3487 32.874 30.0144 32.874Z" fill="#CAE0FF"/>
<path id="Vector_6" d="M33.9403 49.9597C33.6035 49.9597 33.275 49.8642 32.9902 49.6835C31.9361 49.0146 26.5879 45.526 24.8105 42.5217C23.9594 41.0831 23.58 39.6936 23.58 38.0163C23.58 33.7076 26.8173 31.4531 30.0148 31.4531C31.8732 31.4531 33.126 32.1239 33.9389 32.8527C34.7505 32.1239 36.0019 31.4531 37.8583 31.4531C41.0542 31.4531 44.2894 33.7076 44.2894 38.0163C44.2894 39.6914 43.9093 41.081 43.0569 42.5217C41.2923 45.5047 35.9478 49.0089 34.8942 49.681C34.6089 49.8633 34.2788 49.9597 33.9403 49.9597ZM30.0147 34.2946C28.3569 34.2946 26.4212 35.2693 26.4212 38.0165C26.4212 39.1868 26.663 40.073 27.2558 41.0752C28.3514 42.9273 31.8288 45.5149 33.9387 46.9121C36.0486 45.5081 39.5238 42.9137 40.6114 41.0752C41.2056 40.0708 41.448 39.1846 41.448 38.0165C41.448 35.2695 39.5142 34.2946 37.8582 34.2946C36.3443 34.2946 35.6398 35.0184 35.3153 35.6255C35.0438 36.1337 34.5168 36.4493 33.94 36.4493C33.3643 36.4493 32.8379 36.1345 32.5661 35.6279C32.2399 35.0192 31.5327 34.2946 30.0147 34.2946Z" fill="#01499D"/>
</g>
</svg>
