<svg width="50" height="50" viewBox="0 0 50 50" fill="none" xmlns="http://www.w3.org/2000/svg">
<g id="donation_240406 1" clip-path="url(#clip0_723_6367)">
<g id="Group">
<path id="Vector" d="M20.2225 28.8424C19.5156 28.8424 18.9426 28.2694 18.9426 27.5625V11.9798C18.9426 11.3799 18.4546 10.8919 17.8547 10.8919C17.2548 10.8919 16.7668 11.3799 16.7668 11.9798V27.5627C16.7668 28.2696 16.1938 28.8426 15.4869 28.8426C14.7801 28.8426 14.207 28.2696 14.207 27.5627V11.9798C14.207 9.96848 15.8434 8.33215 17.8547 8.33215C19.866 8.33215 21.5023 9.96848 21.5023 11.9798V27.5627C21.5023 28.2695 20.9293 28.8424 20.2225 28.8424Z" fill="#01499D"/>
<path id="Vector_2" d="M10.7518 28.8427C10.0449 28.8427 9.47188 28.2696 9.47188 27.5628V10.7961C9.47188 10.1962 8.98389 9.7082 8.38398 9.7082C7.78408 9.7082 7.29609 10.1962 7.29609 10.7961V14.072C7.29609 14.7788 6.72305 15.3519 6.01621 15.3519C5.30937 15.3519 4.73633 14.7788 4.73633 14.072V10.7961C4.73633 8.78477 6.37266 7.14844 8.38398 7.14844C10.3953 7.14844 12.0316 8.78477 12.0316 10.7961V27.563C12.0316 28.2697 11.4586 28.8427 10.7518 28.8427Z" fill="#01499D"/>
<path id="Vector_3" d="M15.4861 28.8427C14.7793 28.8427 14.2062 28.2697 14.2062 27.5628V8.42805C14.2062 7.82815 13.7183 7.34016 13.1184 7.34016C12.5185 7.34016 12.0305 7.82815 12.0305 8.42805V27.5629C12.0305 28.2697 11.4574 28.8428 10.7506 28.8428C10.0437 28.8428 9.4707 28.2697 9.4707 27.5629V8.42805C9.4707 6.41672 11.107 4.7804 13.1184 4.7804C15.1297 4.7804 16.766 6.41672 16.766 8.42805V27.5629C16.766 28.2697 16.193 28.8427 15.4861 28.8427Z" fill="#01499D"/>
<path id="Vector_4" d="M6.86719 41.7729C6.3998 41.7729 5.94941 41.5158 5.72402 41.0702C5.25576 40.1442 4.56943 39.3255 3.73916 38.7029C1.39785 36.9466 0 34.1507 0 31.224V20.9554C0 18.9441 1.63633 17.3077 3.64766 17.3077C5.65898 17.3077 7.29531 18.9441 7.29531 20.9554V26.4974C7.29531 27.2042 6.72227 27.7773 6.01543 27.7773C5.30859 27.7773 4.73555 27.2042 4.73555 26.4974V20.9554C4.73555 20.3555 4.24756 19.8675 3.64766 19.8675C3.04775 19.8675 2.55977 20.3555 2.55977 20.9554V31.224C2.55977 33.3494 3.5748 35.3798 5.2752 36.6552C6.41836 37.5127 7.36357 38.6401 8.0084 39.9153C8.32734 40.546 8.07461 41.3159 7.44375 41.6349C7.25859 41.7285 7.06143 41.7729 6.86719 41.7729Z" fill="#01499D"/>
<path id="Vector_5" d="M24.9568 28.8432C24.25 28.8432 23.677 28.2701 23.677 27.5633V15.5325C23.677 14.9326 23.189 14.4447 22.5891 14.4447C21.9892 14.4447 21.5012 14.9326 21.5012 15.5325V27.5634C21.5012 28.2702 20.9281 28.8433 20.2213 28.8433C19.5145 28.8433 18.9414 28.2702 18.9414 27.5634V15.5325C18.9414 13.5212 20.5777 11.8849 22.5891 11.8849C24.6004 11.8849 26.2367 13.5212 26.2367 15.5325V27.5634C26.2366 28.2702 25.6637 28.8432 24.9568 28.8432Z" fill="#01499D"/>
<path id="Vector_6" d="M34.5135 28.8424C33.8066 28.8424 33.2336 28.2694 33.2336 27.5625V11.9798C33.2336 11.3799 32.7456 10.8919 32.1457 10.8919C31.5458 10.8919 31.0578 11.3799 31.0578 11.9798V27.5627C31.0578 28.2696 30.4848 28.8426 29.7779 28.8426C29.0711 28.8426 28.498 28.2696 28.498 27.5627V11.9798C28.498 9.96848 30.1344 8.33215 32.1457 8.33215C34.157 8.33215 35.7934 9.96848 35.7934 11.9798V27.5627C35.7934 28.2695 35.2204 28.8424 34.5135 28.8424Z" fill="#01499D"/>
<path id="Vector_7" d="M39.2486 28.8428C38.5418 28.8428 37.9688 28.2698 37.9688 27.5629V10.7962C37.9688 8.78489 39.6051 7.14856 41.6164 7.14856C43.6277 7.14856 45.2641 8.78489 45.2641 10.7962V14.0721C45.2641 14.7789 44.691 15.352 43.9842 15.352C43.2773 15.352 42.7043 14.7789 42.7043 14.0721V10.7962C42.7043 10.1963 42.2163 9.70833 41.6164 9.70833C41.0165 9.70833 40.5285 10.1963 40.5285 10.7962V27.5631C40.5285 28.2698 39.9556 28.8428 39.2486 28.8428Z" fill="#01499D"/>
<path id="Vector_8" d="M39.2498 28.8427C38.543 28.8427 37.9699 28.2697 37.9699 27.5628V8.42805C37.9699 7.82815 37.4819 7.34016 36.882 7.34016C36.2821 7.34016 35.7941 7.82815 35.7941 8.42805V27.5629C35.7941 28.2697 35.2211 28.8428 34.5143 28.8428C33.8074 28.8428 33.2344 28.2697 33.2344 27.5629V8.42805C33.2344 6.41672 34.8707 4.7804 36.882 4.7804C38.8934 4.7804 40.5297 6.41672 40.5297 8.42805V27.5629C40.5297 28.2697 39.9567 28.8427 39.2498 28.8427Z" fill="#01499D"/>
<path id="Vector_9" d="M43.1329 41.7729C42.9385 41.7729 42.7415 41.7286 42.5564 41.6349C41.9255 41.3159 41.6728 40.5459 41.9917 39.9152C42.6366 38.6399 43.5817 37.5127 44.725 36.655C46.4252 35.3797 47.4404 33.3493 47.4404 31.2238V20.9553C47.4404 20.3554 46.9524 19.8674 46.3525 19.8674C45.7526 19.8674 45.2646 20.3554 45.2646 20.9553V26.4973C45.2646 27.2041 44.6917 27.7771 43.9847 27.7771C43.2779 27.7771 42.7048 27.2041 42.7048 26.4973V20.9553C42.7048 18.9439 44.3412 17.3076 46.3525 17.3076C48.3638 17.3076 50.0001 18.9439 50.0001 20.9553V31.2238C50.0001 34.1507 48.6023 36.9466 46.261 38.7027C45.4307 39.3255 44.7445 40.1441 44.2761 41.0702C44.0506 41.5159 43.6002 41.7729 43.1329 41.7729Z" fill="#01499D"/>
<path id="Vector_10" d="M29.7771 28.8432C29.0703 28.8432 28.4973 28.2701 28.4973 27.5633V15.5325C28.4973 14.9326 28.0093 14.4447 27.4094 14.4447C26.8095 14.4447 26.3215 14.9326 26.3215 15.5325V27.5634C26.3215 28.2702 25.7484 28.8433 25.0416 28.8433C24.3348 28.8433 23.7617 28.2702 23.7617 27.5634V15.5325C23.7617 13.5212 25.398 11.8849 27.4094 11.8849C29.4207 11.8849 31.057 13.5212 31.057 15.5325V27.5634C31.057 28.2702 30.4841 28.8432 29.7771 28.8432Z" fill="#01499D"/>
</g>
<path id="Vector_11" d="M31.2677 18.8915C27.526 18.8915 25.847 20.9888 25.1866 22.2207C25.1037 22.3754 24.8784 22.3751 24.7957 22.2204C24.1375 20.9883 22.4678 18.8914 18.7262 18.8914C14.464 18.8914 10.7147 21.8009 10.7147 27.114C10.7147 29.2639 11.1528 31.1058 12.3689 33.1613C14.847 37.3501 23.0107 42.7804 24.6876 43.8505C24.873 43.9688 25.1078 43.9692 25.2934 43.8513C26.9718 42.7864 35.1368 37.383 37.6344 33.1613C38.8504 31.1058 39.2855 29.2639 39.2855 27.114C39.2853 21.801 35.53 18.8915 31.2677 18.8915Z" fill="#CAE0FF"/>
<path id="Vector_12" d="M24.9919 45.2193C24.64 45.2193 24.2971 45.1191 23.9999 44.9294C22.9878 44.2836 14.0318 38.4845 11.2681 33.8129C10.0008 31.6706 9.43555 29.6047 9.43555 27.1139C9.43555 24.2512 10.4063 21.8191 12.2431 20.0806C13.9253 18.4883 16.2281 17.6113 18.7271 17.6113C21.9476 17.6113 23.8812 18.9552 25.0002 20.2625C26.089 19.0154 28.0335 17.6113 31.2687 17.6113C33.7679 17.6113 36.0714 18.4882 37.7552 20.0802C39.5942 21.819 40.5662 24.2513 40.5662 27.1139C40.5662 29.6081 40.002 31.674 38.7367 33.8129C35.9527 38.5191 26.9925 44.2895 25.98 44.9319C25.6838 45.1198 25.342 45.2193 24.9919 45.2193ZM18.7271 20.1711C15.3765 20.1711 11.9954 22.3179 11.9954 27.1139C11.9954 29.1472 12.4368 30.7608 13.4712 32.5095C15.7145 36.3014 23.1885 41.3406 24.9941 42.5234C28.5458 40.2294 34.5915 35.7921 36.5335 32.5095C37.5658 30.7645 38.0063 29.1508 38.0063 27.1139C38.0063 22.3179 34.6224 20.1711 31.2685 20.1711C28.3509 20.1711 26.9645 21.6145 26.3152 22.8253C26.0537 23.3132 25.5467 23.6162 24.9921 23.6162C24.4363 23.6162 23.9289 23.3122 23.6676 22.823C23.0212 21.6134 21.6393 20.1711 18.7271 20.1711Z" fill="#01499D"/>
</g>
<defs>
<clipPath id="clip0_723_6367">
<rect width="50" height="50" fill="white"/>
</clipPath>
</defs>
</svg>
