<svg width="50" height="50" viewBox="0 0 50 50" fill="none" xmlns="http://www.w3.org/2000/svg">
<g id="shield_240421 1">
<path id="Vector" d="M20.1115 16.9756C23.0296 16.9756 24.3387 18.611 24.8538 19.5718C24.9185 19.6924 25.0941 19.6922 25.1586 19.5715C25.672 18.6107 26.9739 16.9756 29.8916 16.9756C33.2153 16.9756 36.1391 19.2444 36.1391 23.3876C36.1391 25.0641 35.7975 26.5005 34.8493 28.1033C32.9168 31.3699 26.5508 35.6045 25.243 36.4389C25.0985 36.5312 24.9154 36.5315 24.7706 36.4395C23.4619 35.609 17.0946 31.3955 15.147 28.1033C14.1987 26.5004 13.8594 25.0641 13.8594 23.3876C13.8592 19.2444 16.7876 16.9756 20.1115 16.9756Z" fill="#CAE0FF"/>
<g id="Group">
<path id="Vector_2" d="M25.0074 37.9252C24.6549 37.9252 24.3108 37.8252 24.0125 37.636C23.2141 37.1293 16.1489 32.5783 13.9284 28.8249C12.9014 27.0887 12.4434 25.4119 12.4434 23.3876C12.4434 21.0372 13.2467 19.0352 14.7665 17.5983C16.1576 16.2829 18.0562 15.5586 20.1127 15.5586C22.5106 15.5586 24.0572 16.4951 25.006 17.4377C25.9533 16.4949 27.4971 15.5586 29.8928 15.5586C31.9492 15.5586 33.8471 16.2831 35.2371 17.5988C36.7549 19.0356 37.5574 21.0375 37.5574 23.3877C37.5574 25.4093 37.0987 27.0862 36.07 28.825C33.8651 32.5519 26.8043 37.1245 26.0063 37.6336C25.707 37.8243 25.3617 37.9252 25.0074 37.9252ZM20.1129 18.3924C17.7061 18.3924 15.2775 19.9369 15.2775 23.3874C15.2775 24.9156 15.5934 26.0728 16.3678 27.3816C17.8002 29.8031 22.3734 33.1778 25.006 34.904C27.6381 33.1696 32.2087 29.7853 33.6308 27.3816C34.4068 26.0699 34.7233 24.9127 34.7233 23.3874C34.7233 19.9367 32.2971 18.3924 29.8927 18.3924C27.8293 18.3924 26.8596 19.3966 26.4093 20.2392C26.1328 20.7569 25.5954 21.0789 25.0071 21.0789C24.4199 21.0789 23.883 20.7578 23.6059 20.241C23.154 19.3977 22.1808 18.3924 20.1129 18.3924Z" fill="#01499D"/>
<path id="Vector_3" d="M25.0002 49.9999C24.7803 49.9999 24.5606 49.949 24.3592 49.8466C22.0515 48.6762 18.5874 46.8034 15.1897 44.5286C11.9787 42.3789 9.38261 40.2563 7.47333 38.2195C5.63027 36.2533 4.61523 33.6844 4.61523 30.9863V10.6588C4.61523 9.95069 5.13779 9.35137 5.83926 9.25499C12.6146 8.32374 19.0697 5.17833 24.0155 0.398071C24.5647 -0.13269 25.4357 -0.13269 25.985 0.398071C28.6307 2.95519 31.6824 5.038 35.0547 6.58859C35.7658 6.91544 36.0771 7.75694 35.7503 8.46798C35.4235 9.17921 34.5822 9.49063 33.8709 9.16348C30.6184 7.66817 27.6399 5.71613 25 3.35168C20.0757 7.75616 13.9273 10.7413 7.44931 11.8717V30.9864C7.44931 32.9618 8.19228 34.8423 9.5411 36.2814C11.3031 38.1612 13.7342 40.1437 16.7665 42.1737C19.7467 44.169 22.7901 45.8491 25.0004 46.9908C27.2106 45.8489 30.254 44.1689 33.2342 42.1737C36.2666 40.1435 38.6976 38.1612 40.4596 36.2814C41.8086 34.8423 42.5514 32.9618 42.5514 30.9864V10.6588C42.5514 9.87618 43.1858 9.2418 43.9684 9.2418C44.751 9.2418 45.3854 9.87618 45.3854 10.6588V30.9864C45.3854 33.6845 44.3703 36.2532 42.5273 38.2196C40.618 40.2564 38.0219 42.379 34.8108 44.5287C31.4131 46.8035 27.9492 48.6763 25.6414 49.8467C25.4397 49.9489 25.2198 49.9999 25.0002 49.9999Z" fill="#01499D"/>
</g>
</g>
</svg>
