<svg width="37" height="44" viewBox="0 0 37 44" fill="none" xmlns="http://www.w3.org/2000/svg">
<g id="icons">
<path id="Vector" d="M34.1371 32.8359C33.7698 32.805 33.3997 32.8462 33.0492 32.957C32.6986 33.0679 32.3747 33.2461 32.0969 33.481L28.5831 24.9578C29.309 24.9234 29.9923 24.6152 30.4869 24.0991C30.9814 23.583 31.2479 22.8999 31.2295 22.1959C31.211 21.4918 30.909 20.8227 30.3881 20.3316C29.8671 19.8405 29.1685 19.5664 28.4417 19.5678H11.0017C10.9576 19.5668 10.9152 19.5519 10.8808 19.5252C10.8464 19.4985 10.8221 19.4616 10.8115 19.4202L7.31247 2.47797C7.24162 2.12976 7.10063 1.79851 6.89755 1.50314C6.69447 1.20778 6.43329 0.954103 6.12894 0.756621C5.8246 0.559139 5.48306 0.421727 5.12386 0.352244C4.76466 0.28276 4.39484 0.282568 4.03557 0.351678C3.67629 0.420789 3.3346 0.557845 3.03003 0.755011C2.72547 0.952176 2.46401 1.20558 2.2606 1.50073C2.05719 1.79589 1.91583 2.127 1.8446 2.47513C1.77337 2.82326 1.77367 3.18158 1.84548 3.52959L5.34483 20.4733C5.52641 21.3423 5.91808 22.1572 6.48769 22.851C7.0573 23.5449 7.78862 24.098 8.62161 24.465L6.70281 29.1142C6.62883 29.3042 6.63471 29.5146 6.71918 29.7004C6.80364 29.8862 6.95995 30.0325 7.15452 30.1078C7.34909 30.1831 7.56639 30.1815 7.75973 30.1032C7.95306 30.025 8.10701 29.8764 8.18849 29.6894L10.1596 24.913C10.7074 24.9928 12.1268 24.9727 12.7037 24.9716L8.27392 35.6974C7.56377 35.3263 6.8775 34.9137 6.2189 34.4621L6.84614 32.9426C6.92014 32.7527 6.91427 32.5422 6.82981 32.3564C6.74536 32.1706 6.58904 32.0243 6.39446 31.949C6.19988 31.8737 5.98256 31.8753 5.78922 31.9536C5.59587 32.0318 5.44192 32.1804 5.36046 32.3675L4.90067 33.4815C4.62223 33.25 4.29933 33.074 3.95051 32.9637C3.60169 32.8534 3.23382 32.811 2.86803 32.8388C2.50223 32.8666 2.14571 32.9642 1.81893 33.1259C1.49216 33.2876 1.20156 33.5103 0.963837 33.7811C0.726111 34.0519 0.545933 34.3655 0.433649 34.704C0.321365 35.0424 0.279186 35.3991 0.309534 35.7534C0.339882 36.1077 0.442158 36.4527 0.610491 36.7686C0.778825 37.0845 1.0099 37.365 1.29045 37.5942C2.49793 38.5828 3.7996 39.458 5.17792 40.2081C9.34978 42.5654 14.1078 43.7719 18.9367 43.6967C23.7655 43.6215 28.4811 42.2675 32.5727 39.7815C33.6729 39.1284 34.7213 38.3966 35.7092 37.5923C35.9897 37.3656 36.221 37.0871 36.3894 36.7729C36.5578 36.4588 36.6601 36.1154 36.6903 35.7626C36.752 35.0465 36.5178 34.336 36.039 33.7872C35.5602 33.2384 34.8762 32.8962 34.1371 32.8359ZM30.714 34.5071C30.0747 34.9407 29.4101 35.3381 28.7236 35.6974L24.2939 24.9716H26.8662C26.8038 25.0172 30.9578 34.5177 30.714 34.5071ZM14.4265 24.9716H17.4767C17.6889 24.9716 17.8923 24.89 18.0423 24.7446C18.1923 24.5993 18.2766 24.4022 18.2766 24.1966C18.2766 23.9911 18.1923 23.7939 18.0423 23.6486C17.8923 23.5033 17.6889 23.4216 17.4767 23.4216H11.0017C10.0391 23.4157 9.10774 23.0897 8.36357 22.498C7.61941 21.9063 7.10757 21.085 6.91371 20.1714L3.4135 3.22269C3.35834 2.92562 3.42588 2.61943 3.60157 2.37016C3.77725 2.1209 4.047 1.94851 4.35266 1.89018C4.65832 1.83185 4.97539 1.89224 5.23551 2.05834C5.49563 2.22444 5.67796 2.48294 5.74319 2.7781L9.2422 19.721C9.3234 20.1151 9.54315 20.4698 9.86399 20.7245C10.1848 20.9792 10.5869 21.1182 11.0017 21.1178H28.4417C28.7539 21.1223 29.0518 21.2457 29.2709 21.4612C29.4901 21.6767 29.6129 21.9672 29.6129 22.2697C29.6129 22.5723 29.4901 22.8627 29.2709 23.0782C29.0517 23.2938 28.7539 23.4171 28.4416 23.4216H21.6999C21.4877 23.4216 21.2843 23.5033 21.1343 23.6486C20.9843 23.7939 20.9 23.9911 20.9 24.1966C20.9 24.4022 20.9843 24.5993 21.1343 24.7446C21.2843 24.89 21.4877 24.9716 21.6999 24.9716H22.5712L27.2896 36.3973C24.5376 37.6442 21.5367 38.2904 18.4987 38.2903C15.4607 38.2901 12.4598 37.6436 9.70802 36.3964L14.4265 24.9716ZM34.675 36.4097C33.563 37.3117 32.371 38.1167 31.1127 38.8153C22.2277 44.0297 10.156 42.9293 2.32076 36.408C2.14456 36.2594 2.01715 36.064 1.95426 35.846C1.89137 35.628 1.89576 35.397 1.96688 35.1814C2.03801 34.9658 2.17276 34.7751 2.35448 34.6328C2.53621 34.4906 2.75695 34.4031 2.98945 34.381C3.94534 34.3676 4.5427 35.3568 5.41063 35.8079C8.76913 38.0986 12.7059 39.4639 16.8018 39.7586C20.8976 40.0533 24.9993 39.2662 28.6701 37.4813C29.9217 36.8772 31.1147 36.1654 32.2347 35.3544C32.8926 34.9487 33.2271 34.3304 34.0087 34.381C34.1648 34.3935 34.3168 34.4357 34.456 34.5052C34.5952 34.5746 34.7189 34.6701 34.82 34.786C34.9211 34.9019 34.9976 35.036 35.0451 35.1806C35.0926 35.3252 35.1101 35.4775 35.0968 35.6287C35.0839 35.7796 35.04 35.9265 34.9675 36.0606C34.8951 36.1948 34.7956 36.3135 34.675 36.4097Z" fill="white"/>
</g>
</svg>
