<svg width="37" height="44" viewBox="0 0 37 44" fill="none" xmlns="http://www.w3.org/2000/svg">
<g id="icons">
<path id="Vector" d="M36.0855 17.062L19.1855 5.43052C18.9679 5.28044 18.7094 5.20001 18.4445 5.20001C18.1797 5.20001 17.9212 5.28044 17.7035 5.43052L0.803542 17.062C0.540289 17.2649 0.36541 17.5605 0.314989 17.8878C0.264567 18.2151 0.342449 18.5492 0.532566 18.8211C0.722682 19.093 1.01053 19.282 1.33671 19.3491C1.6629 19.4161 2.00253 19.3562 2.28554 19.1815L4.14454 17.8892V35.0392C4.14283 35.5324 4.23908 36.0212 4.42778 36.4774C4.61647 36.9336 4.89389 37.3483 5.24414 37.6977C5.59439 38.0471 6.01057 38.3243 6.46882 38.5135C6.92706 38.7026 7.41836 38.8 7.91454 38.8H28.9745C29.4707 38.8 29.962 38.7026 30.4203 38.5135C30.8785 38.3243 31.2947 38.0471 31.6449 37.6977C31.9952 37.3483 32.2726 36.9336 32.4613 36.4774C32.65 36.0212 32.7463 35.5324 32.7445 35.0392V21.9989C32.7445 21.6562 32.6076 21.3275 32.3638 21.0851C32.12 20.8427 31.7893 20.7066 31.4445 20.7066C31.0998 20.7066 30.7691 20.8427 30.5253 21.0851C30.2815 21.3275 30.1445 21.6562 30.1445 21.9989V35.0392C30.1463 35.193 30.1173 35.3456 30.0592 35.4882C30.0012 35.6309 29.9153 35.7606 29.8065 35.87C29.6977 35.9794 29.5681 36.0662 29.4253 36.1255C29.2825 36.1847 29.1293 36.2152 28.9745 36.2152H7.91454C7.75979 36.2152 7.60658 36.1847 7.46378 36.1255C7.32097 36.0662 7.19141 35.9794 7.0826 35.87C6.97378 35.7606 6.88787 35.6309 6.82984 35.4882C6.77181 35.3456 6.74282 35.193 6.74454 35.0392V16.1186L18.4445 8.06699L34.6035 19.1815C34.743 19.289 34.9029 19.3671 35.0737 19.4111C35.2444 19.4551 35.4224 19.4642 35.5968 19.4376C35.7712 19.4111 35.9383 19.3495 36.088 19.2567C36.2376 19.1639 36.3668 19.0418 36.4674 18.8978C36.5681 18.7538 36.6383 18.5909 36.6736 18.4191C36.709 18.2473 36.7088 18.0701 36.6731 17.8984C36.6373 17.7266 36.5668 17.5639 36.4658 17.4201C36.3648 17.2763 36.2354 17.1545 36.0855 17.062Z" fill="white"/>
<path id="Vector_2" d="M20.4219 28.5513C19.7972 28.9748 19.1359 29.3424 18.4459 29.6498C17.7559 29.3424 17.0946 28.9748 16.4699 28.5513C16.0104 28.2357 15.5758 27.8858 15.1699 27.5044C14.9147 27.2731 14.5776 27.1519 14.2326 27.1677C13.8877 27.1834 13.5631 27.3348 13.3304 27.5884C13.0977 27.8421 12.9758 28.1772 12.9917 28.5202C13.0075 28.8631 13.1597 29.1858 13.4149 29.4172C13.9081 29.8841 14.4337 30.316 14.9879 30.7096C15.9168 31.3458 16.9156 31.8747 17.9649 32.2863C18.2738 32.4086 18.618 32.4086 18.9269 32.2863C19.9736 31.8692 20.9718 31.3405 21.9039 30.7096C23.9559 29.2694 25.6391 27.3703 26.8179 25.1652C27.3138 24.2841 27.5677 23.2888 27.554 22.2792C27.5403 21.2697 27.2595 20.2815 26.7399 19.4141C26.2862 18.6328 25.6347 17.9831 24.8501 17.5296C24.0656 17.0762 23.1754 16.8347 22.2679 16.8293C21.5468 16.8281 20.8337 16.9784 20.1751 17.2701C19.5164 17.5619 18.9272 17.9886 18.4459 18.5223C17.9646 17.9886 17.3753 17.5619 16.7167 17.2701C16.0581 16.9784 15.3449 16.8281 14.6239 16.8293C13.7164 16.8347 12.8262 17.0762 12.0416 17.5296C11.2571 17.9831 10.6056 18.6328 10.1519 19.4141C9.64182 20.2754 9.36636 21.2541 9.35269 22.2535C9.33901 23.2529 9.58758 24.2387 10.0739 25.1135C10.1592 25.262 10.2732 25.3923 10.4092 25.4971C10.5452 25.6018 10.7007 25.6789 10.8667 25.7239C11.0327 25.7689 11.2059 25.7809 11.3766 25.7594C11.5473 25.7378 11.712 25.683 11.8614 25.5982C12.0108 25.5133 12.1419 25.4 12.2472 25.2648C12.3526 25.1296 12.4301 24.975 12.4753 24.81C12.5206 24.645 12.5327 24.4727 12.511 24.3031C12.4893 24.1334 12.4342 23.9696 12.3489 23.8211C12.0741 23.3429 11.9296 22.8016 11.9296 22.2509C11.9296 21.7001 12.0741 21.1589 12.3489 20.6806C12.5758 20.29 12.9015 19.9651 13.2938 19.7384C13.686 19.5117 14.1312 19.3909 14.5849 19.3882C15.0967 19.3897 15.5967 19.5413 16.0222 19.8241C16.4477 20.1069 16.7798 20.5082 16.9769 20.9779L17.2239 21.5207C17.3273 21.7463 17.4938 21.9376 17.7036 22.0717C17.9133 22.2059 18.1575 22.2772 18.4069 22.2772C18.6563 22.2772 18.9004 22.2059 19.1102 22.0717C19.32 21.9376 19.4865 21.7463 19.5899 21.5207L19.8369 20.9779C20.0405 20.507 20.3803 20.1069 20.8132 19.8284C21.246 19.55 21.7524 19.4057 22.2679 19.4141C22.7216 19.4168 23.1667 19.5375 23.559 19.7642C23.9513 19.991 24.277 20.3158 24.5039 20.7065C24.7786 21.1847 24.9231 21.726 24.9231 22.2767C24.9231 22.8275 24.7786 23.3687 24.5039 23.847C23.5259 25.7067 22.1289 27.3167 20.4219 28.5513Z" fill="white"/>
</g>
</svg>
