<svg width="37" height="44" viewBox="0 0 37 44" fill="none" xmlns="http://www.w3.org/2000/svg">
<g id="icons">
<path id="Vector" d="M35.2781 28.0425C36.0634 28.0425 36.6999 27.4003 36.6999 26.6081V16.3108C36.6999 13.1761 34.1719 10.6259 31.0646 10.6259H25.5306V8.70559C25.5306 6.38667 23.6604 4.5 21.3618 4.5H15.638C13.3394 4.5 11.4692 6.38659 11.4692 8.70559V10.6259H5.93531C2.82802 10.6259 0.300003 13.1761 0.300003 16.3108V33.8151C0.300003 36.9498 2.82802 39.5 5.93531 39.5H31.0647C34.172 39.5 36.7 36.9498 36.7 33.8151V33.7801C36.7 32.9879 36.0634 32.3457 35.2781 32.3457C34.4928 32.3457 33.8563 32.9879 33.8563 33.7801V33.8151C33.8563 35.3679 32.604 36.6312 31.0647 36.6312H5.93531C4.39599 36.6312 3.14375 35.3679 3.14375 33.8151V16.3108C3.14375 14.758 4.39599 13.4947 5.93531 13.4947H31.0647C32.6039 13.4947 33.8563 14.758 33.8563 16.3108V26.6081C33.8562 27.4003 34.4928 28.0425 35.2781 28.0425ZM14.313 10.6259V8.70559C14.313 7.96852 14.9074 7.3688 15.6381 7.3688H21.3618C22.0925 7.3688 22.687 7.96845 22.687 8.70559V10.6259H14.313ZM17.7005 32.9388H19.2994C21.2286 32.9388 22.7981 31.3555 22.7981 29.4094V29.4038H22.8035C24.7327 29.4038 26.3022 27.8205 26.3022 25.8743V24.2614C26.3022 22.3152 24.7327 20.7319 22.8035 20.7319H22.7981V20.7264C22.7981 18.7802 21.2286 17.1969 19.2994 17.1969H17.7005C15.7713 17.1969 14.2019 18.7803 14.2019 20.7264V20.7319H14.1964C12.2672 20.7319 10.6977 22.3152 10.6977 24.2614V25.8744C10.6977 27.8206 12.2672 29.4039 14.1964 29.4039H14.2019V29.4094C14.2019 31.3556 15.7713 32.9388 17.7005 32.9388ZM14.1964 26.535C13.8353 26.535 13.5415 26.2387 13.5415 25.8743V24.2614C13.5415 23.897 13.8353 23.6007 14.1964 23.6007H15.6237C16.409 23.6007 17.0456 22.9585 17.0456 22.1663V20.7264C17.0456 20.3621 17.3394 20.0657 17.7005 20.0657H19.2994C19.6605 20.0657 19.9543 20.3622 19.9543 20.7264V22.1663C19.9543 22.9585 20.5909 23.6007 21.3762 23.6007H22.8035C23.1646 23.6007 23.4585 23.8971 23.4585 24.2614V25.8744C23.4585 26.2388 23.1646 26.5351 22.8035 26.5351H21.3762C20.5909 26.5351 19.9543 27.1773 19.9543 27.9695V29.4094C19.9543 29.7738 19.6605 30.0701 19.2994 30.0701H17.7005C17.3394 30.0701 17.0456 29.7737 17.0456 29.4094V27.9695C17.0456 27.1773 16.409 26.5351 15.6237 26.5351H14.1964V26.535Z" fill="white"/>
</g>
</svg>
