<svg width="37" height="44" viewBox="0 0 37 44" fill="none" xmlns="http://www.w3.org/2000/svg">
<g id="icons">
<path id="Vector" d="M35.99 29.7259C35.5572 29.1265 34.9572 28.6678 34.265 28.4073C33.5727 28.1467 32.819 28.0959 32.098 28.2611L23.8728 30.2185C23.3809 30.3224 22.8727 30.3224 22.3808 30.2185L18.411 29.4537C18.2099 29.4267 18.0245 29.3303 17.8871 29.1811C17.7497 29.032 17.6688 28.8395 17.6585 28.637C17.6651 28.5195 17.6949 28.4044 17.7461 28.2984C17.7973 28.1924 17.869 28.0975 17.957 28.0193C18.045 27.941 18.1475 27.8808 18.2588 27.8422C18.3701 27.8036 18.488 27.7874 18.6056 27.7944H19.7602C20.6204 27.7944 21.4454 27.453 22.0536 26.8452C22.6619 26.2375 23.0036 25.4132 23.0036 24.5537C23.0036 23.6942 22.6619 22.8699 22.0536 22.2621C21.4454 21.6544 20.6204 21.3129 19.7602 21.3129H16.0109C15.175 21.3133 14.3439 21.4401 13.5459 21.6889L7.99327 23.4907C7.90127 23.2447 7.73664 23.0323 7.52118 22.8819C7.30572 22.7314 7.0496 22.6499 6.78674 22.6481H1.59735C1.25327 22.6481 0.923287 22.7847 0.679987 23.0278C0.436687 23.2709 0.300003 23.6006 0.300003 23.9444V27.8333C0.300003 28.1771 0.436687 28.5068 0.679987 28.7499C0.923287 28.993 1.25327 29.1296 1.59735 29.1296C1.94143 29.1296 2.27141 28.993 2.51471 28.7499C2.75801 28.5068 2.8947 28.1771 2.8947 27.8333V25.2407H5.48939V36.9074H2.8947V33.0185C2.8947 32.6747 2.75801 32.345 2.51471 32.1019C2.27141 31.8588 1.94143 31.7222 1.59735 31.7222C1.25327 31.7222 0.923287 31.8588 0.679987 32.1019C0.436687 32.345 0.300003 32.6747 0.300003 33.0185V38.2037C0.300003 38.5475 0.436687 38.8772 0.679987 39.1203C0.923287 39.3634 1.25327 39.5 1.59735 39.5H6.78674C7.10746 39.5019 7.41754 39.3851 7.65712 39.172C7.8967 38.959 8.04881 38.6648 8.08408 38.3462L15.479 39.124C16.1424 39.197 16.8095 39.2316 17.4769 39.2277C19.2336 39.2248 20.981 38.9716 22.6663 38.4759L26.5583 37.3351C26.7219 37.2875 26.8744 37.2081 27.0073 37.1015C27.1401 36.9949 27.2507 36.8633 27.3326 36.714C27.4145 36.5647 27.4662 36.4008 27.4847 36.2316C27.5032 36.0624 27.4882 35.8912 27.4405 35.7277C27.3928 35.5643 27.3133 35.4119 27.2067 35.2791C27.1 35.1464 26.9682 35.0359 26.8189 34.9541C26.6695 34.8722 26.5054 34.8206 26.3361 34.8021C26.1667 34.7836 25.9953 34.7986 25.8318 34.8463L21.9398 35.987C19.9176 36.5864 17.796 36.7759 15.6995 36.5444L8.08408 35.7407V26.187L14.3373 24.2037C14.8787 24.0324 15.443 23.945 16.0109 23.9444H19.7602C19.9322 23.9444 20.0972 24.0127 20.2189 24.1342C20.3405 24.2558 20.4089 24.4207 20.4089 24.5926C20.4089 24.7645 20.3405 24.9293 20.2189 25.0509C20.0972 25.1724 19.9322 25.2407 19.7602 25.2407H18.6056C17.7201 25.183 16.8468 25.4709 16.1695 26.0437C15.4923 26.6166 15.064 27.4298 14.9748 28.3119C14.8857 29.1941 15.1427 30.0764 15.6917 30.7729C16.2407 31.4695 17.0388 31.926 17.918 32.0463L21.8879 32.7981C22.7432 32.9798 23.6272 32.9798 24.4825 32.7981L32.7077 30.8277C32.9299 30.7735 33.1632 30.7865 33.378 30.865C33.5928 30.9434 33.7794 31.0839 33.9143 31.2685C33.9979 31.3852 34.0522 31.5204 34.0725 31.6626C34.0928 31.8047 34.0786 31.9496 34.031 32.0851C33.9744 32.2434 33.8797 32.3853 33.7553 32.4983C33.6309 32.6113 33.4805 32.692 33.3175 32.7333L31.125 33.3685C30.7809 33.4166 30.47 33.5993 30.2608 33.8765C30.0516 34.1536 29.9611 34.5025 30.0092 34.8463C30.0574 35.1901 30.2403 35.5006 30.5177 35.7097C30.795 35.9188 31.1441 36.0092 31.4882 35.9611C31.6086 35.98 31.7311 35.98 31.8515 35.9611L34.057 35.3129C34.6118 35.153 35.1209 34.864 35.5426 34.4697C35.9643 34.0754 36.2865 33.587 36.483 33.0444C36.6867 32.4945 36.7483 31.9021 36.6622 31.322C36.576 30.742 36.3448 30.193 35.99 29.7259Z" fill="white"/>
<path id="Vector_2" d="M18.4628 13.9759C18.7382 13.8016 18.9378 13.5301 19.0219 13.2155C19.106 12.9008 19.0685 12.5661 18.9169 12.2778C18.6007 11.7228 18.4344 11.0951 18.4344 10.4565C18.4344 9.81784 18.6007 9.19019 18.9169 8.63518C19.16 8.1683 19.5271 7.77734 19.9779 7.50522C20.4288 7.23311 20.9459 7.09034 21.4727 7.09259C22.0455 7.10676 22.6021 7.28542 23.0761 7.60725C23.55 7.92907 23.9211 8.38044 24.1452 8.9074L24.4176 9.5037C24.5208 9.73002 24.687 9.9219 24.8963 10.0564C25.1057 10.191 25.3493 10.2625 25.5982 10.2625C25.8471 10.2625 26.0908 10.191 26.3001 10.0564C26.5094 9.9219 26.6756 9.73002 26.7788 9.5037L27.0513 8.9074C27.2753 8.38044 27.6465 7.92907 28.1204 7.60725C28.5943 7.28542 29.151 7.10676 29.7238 7.09259C30.2342 7.09703 30.7342 7.23754 31.1721 7.49961C31.61 7.76168 31.9699 8.1358 32.2147 8.58333C32.5309 9.13834 32.6972 9.76599 32.6972 10.4046C32.6972 11.0433 32.5309 11.6709 32.2147 12.2259C31.138 14.2766 29.6018 16.0511 27.7259 17.4111C27.0359 17.9087 26.302 18.3426 25.5334 18.7074C24.7647 18.3426 24.0308 17.9087 23.3408 17.4111C22.8515 17.027 22.3877 16.6113 21.9527 16.1667C21.8283 16.0492 21.682 15.9574 21.5221 15.8964C21.3622 15.8354 21.1919 15.8065 21.0208 15.8114C20.8497 15.8162 20.6813 15.8546 20.5251 15.9245C20.3689 15.9943 20.228 16.0942 20.1104 16.2185C19.9929 16.3428 19.901 16.489 19.84 16.6487C19.779 16.8085 19.75 16.9787 19.7549 17.1496C19.7646 17.4948 19.9112 17.822 20.1623 18.0592C20.7213 18.5696 21.3105 19.0457 21.9267 19.4852C22.9221 20.1782 23.9928 20.7565 25.1182 21.2092C25.4264 21.3319 25.77 21.3319 26.0782 21.2092C27.2065 20.7538 28.2811 20.1756 29.2827 19.4852C31.4907 17.8951 33.2984 15.8137 34.5629 13.4055C35.0807 12.4506 35.3422 11.3779 35.3217 10.292C35.3012 9.20612 34.9996 8.14403 34.4461 7.20926C33.963 6.38613 33.2732 5.70325 32.445 5.22809C31.6168 4.75294 30.6788 4.50197 29.7238 4.5C28.9381 4.50207 28.1622 4.6747 27.4499 5.00596C26.7375 5.33722 26.1057 5.8192 25.5982 6.41852C25.0907 5.8192 24.4589 5.33722 23.7466 5.00596C23.0342 4.6747 22.2584 4.50207 21.4727 4.5C20.5126 4.50725 19.5712 4.76606 18.7425 5.25057C17.9139 5.73508 17.2269 6.42833 16.7503 7.26111C16.1969 8.19588 15.8952 9.25797 15.8747 10.3439C15.8543 11.4298 16.1157 12.5025 16.6336 13.4574C16.7147 13.6162 16.8277 13.7566 16.9656 13.8698C17.1035 13.983 17.2633 14.0665 17.435 14.1152C17.6067 14.1639 17.7866 14.1766 17.9635 14.1527C18.1403 14.1287 18.3103 14.0685 18.4628 13.9759Z" fill="white"/>
</g>
</svg>
