<svg width="14" height="14" viewBox="0 0 14 14" fill="none" xmlns="http://www.w3.org/2000/svg">
<g id="PencilSimple-r">
<g id="Vector">
<path fill-rule="evenodd" clip-rule="evenodd" d="M2.625 12.2504H5.06881L5.06953 12.2504C5.06953 12.2504 5.2419 12.2508 5.4014 12.1852C5.4014 12.1852 5.56161 12.1194 5.68437 11.9973L12.2476 5.43402C12.2476 5.43402 12.3705 5.31303 12.4384 5.15088C12.4384 5.15088 12.5063 4.98873 12.5063 4.81294C12.5063 4.81294 12.5063 4.63715 12.4384 4.475C12.4384 4.475 12.3705 4.31285 12.2453 4.1895L9.80858 1.7528C9.80858 1.7528 9.68759 1.62993 9.52544 1.56203C9.52544 1.56203 9.36329 1.49414 9.1875 1.49414C9.1875 1.49414 9.01171 1.49414 8.84956 1.56203C8.84956 1.56203 8.68741 1.62993 8.56406 1.75518L2.00392 8.3153C2.00392 8.3153 1.881 8.43883 1.8152 8.59904C1.8152 8.59904 1.7494 8.75925 1.75 8.93244L1.75 11.3754C1.75 11.3754 1.75 11.7379 2.00628 11.9942C2.00628 11.9942 2.26256 12.2504 2.625 12.2504ZM11.6289 4.8153L5.06879 11.3754H2.625L2.625 8.93166L9.1875 2.36914L9.18986 2.37152L11.6313 4.81294L11.6289 4.8153Z" fill="#FF8A02"/>
<path d="M10.1904 6.87212C10.2725 6.95417 10.384 7.00049 10.5 7.00049C10.616 7.00049 10.7273 6.95439 10.8094 6.87235C10.8914 6.7903 10.9375 6.67902 10.9375 6.56299C10.9375 6.44696 10.8914 6.33568 10.8094 6.25363L7.74691 3.19118C7.66481 3.10908 7.55353 3.06299 7.4375 3.06299C7.32147 3.06299 7.21019 3.10908 7.12814 3.19113C7.04609 3.27318 7 3.38446 7 3.50049C7 3.61652 7.04609 3.7278 7.12814 3.80985L10.1904 6.87212Z" fill="#FF8A02"/>
</g>
</g>
</svg>
