<svg width="23" height="23" viewBox="0 0 23 23" fill="none" xmlns="http://www.w3.org/2000/svg">
<g id="5340292_locate_location_map_pin_icon 1">
<g id="locate location map pin">
<path id="Vector" d="M14.5096 4.33328C13.0769 2.87933 11.1339 2.0625 9.10788 2.0625C7.08186 2.0625 5.13881 2.87933 3.7062 4.33328C2.27358 5.78724 1.46875 7.75924 1.46875 9.81544C1.46875 11.8717 2.27358 13.8436 3.7062 15.2976L6.55284 18.1867C6.61758 18.2524 6.69443 18.3045 6.77901 18.34C6.8636 18.3756 6.95425 18.3939 7.0458 18.3939C7.13735 18.3939 7.228 18.3756 7.31258 18.34C7.39717 18.3045 7.47402 18.2524 7.53875 18.1867C7.60349 18.121 7.65484 18.043 7.68988 17.9571C7.72491 17.8713 7.74294 17.7793 7.74294 17.6864C7.74294 17.5934 7.72491 17.5014 7.68988 17.4156C7.65484 17.3298 7.60349 17.2518 7.53875 17.1861L4.69211 14.297C3.81743 13.4104 3.22153 12.2804 2.97979 11.05C2.73805 9.81959 2.86134 8.54405 3.33406 7.38477C3.80678 6.2255 4.6077 5.23457 5.63546 4.53737C6.66323 3.84018 7.87167 3.46803 9.10788 3.46803C10.3441 3.46803 11.5525 3.84018 12.5803 4.53737C13.6081 5.23457 14.409 6.2255 14.8817 7.38477C15.3544 8.54405 15.4777 9.81959 15.236 11.05C14.9942 12.2804 14.3983 13.4104 13.5237 14.297L8.61492 19.2789C8.54985 19.3444 8.4982 19.4223 8.46295 19.5082C8.4277 19.594 8.40955 19.6861 8.40955 19.7792C8.40955 19.8722 8.4277 19.9643 8.46295 20.0502C8.4982 20.136 8.54985 20.214 8.61492 20.2795C8.67947 20.3455 8.75626 20.3979 8.84087 20.4337C8.92547 20.4695 9.01622 20.4879 9.10788 20.4879C9.19954 20.4879 9.29029 20.4695 9.37489 20.4337C9.4595 20.3979 9.53629 20.3455 9.60083 20.2795L14.5096 15.2976C15.2191 14.5778 15.782 13.7232 16.1661 12.7825C16.5501 11.8419 16.7478 10.8336 16.7478 9.81544C16.7478 8.79725 16.5501 7.78902 16.1661 6.84838C15.782 5.90773 15.2191 5.05309 14.5096 4.33328Z" fill="black" stroke="black" stroke-width="0.5"/>
<path id="Vector_2" d="M12.5798 9.86504C12.5798 9.16821 12.3762 8.48702 11.9947 7.90763C11.6132 7.32824 11.0711 6.87665 10.4367 6.60999C9.80239 6.34332 9.10439 6.27355 8.43098 6.4095C7.75757 6.54544 7.139 6.881 6.6535 7.37373C6.168 7.86647 5.83737 8.49425 5.70342 9.17769C5.56948 9.86113 5.63822 10.5695 5.90097 11.2133C6.16372 11.8571 6.60868 12.4074 7.17957 12.7945C7.75045 13.1816 8.42164 13.3883 9.10824 13.3883C10.0289 13.3883 10.9119 13.0171 11.563 12.3563C12.214 11.6956 12.5798 10.7995 12.5798 9.86504ZM7.02533 9.86504C7.02533 9.44694 7.14749 9.03823 7.37636 8.69059C7.60523 8.34296 7.93054 8.07201 8.31114 7.91201C8.69174 7.75201 9.11055 7.71015 9.51459 7.79171C9.91864 7.87328 10.2898 8.07461 10.5811 8.37025C10.8724 8.66589 11.0708 9.04256 11.1511 9.45263C11.2315 9.86269 11.1902 10.2877 11.0326 10.674C10.8749 11.0603 10.608 11.3904 10.2654 11.6227C9.92291 11.855 9.5202 11.979 9.10824 11.979C8.55582 11.979 8.02602 11.7563 7.6354 11.3598C7.24478 10.9634 7.02533 10.4257 7.02533 9.86504Z" fill="black" stroke="black" stroke-width="0.5"/>
</g>
</g>
</svg>
