<svg width="30" height="30" viewBox="0 0 30 30" fill="none" xmlns="http://www.w3.org/2000/svg">
<path d="M7 19C9.20914 19 11 17.2091 11 15C11 12.7909 9.20914 11 7 11C4.79086 11 3 12.7909 3 15C3 17.2091 4.79086 19 7 19Z" stroke="#007DFE" stroke-width="2" stroke-linecap="round" stroke-linejoin="round"/>
<path d="M20.5 27C22.433 27 24 25.433 24 23.5C24 21.567 22.433 20 20.5 20C18.567 20 17 21.567 17 23.5C17 25.433 18.567 27 20.5 27Z" stroke="#007DFE" stroke-width="2" stroke-linecap="round" stroke-linejoin="round"/>
<path d="M20.5 10C22.433 10 24 8.433 24 6.5C24 4.567 22.433 3 20.5 3C18.567 3 17 4.567 17 6.5C17 8.433 18.567 10 20.5 10Z" stroke="#007DFE" stroke-width="2" stroke-linecap="round" stroke-linejoin="round"/>
<path d="M17 9L11 13" stroke="#007DFE" stroke-width="2" stroke-linecap="round" stroke-linejoin="round"/>
<path d="M11 17L17 21" stroke="#007DFE" stroke-width="2" stroke-linecap="round" stroke-linejoin="round"/>
</svg>
