<svg width="32" height="32" viewBox="0 0 32 32" fill="none" xmlns="http://www.w3.org/2000/svg">
<g id="Component 1" opacity="0.7">
<g id="Vector">
<path d="M21 16C21 17.3261 20.4732 18.5979 19.5355 19.5355C18.5979 20.4732 17.3261 21 16 21C14.6739 21 13.4021 20.4732 12.4645 19.5355C11.5268 18.5979 11 17.3261 11 16C11 14.6739 11.5268 13.4021 12.4645 12.4645C13.4021 11.5268 14.6739 11 16 11C17.3261 11 18.5979 11.5268 19.5355 12.4645C20.4732 13.4021 21 14.6739 21 16Z" fill="#1C93A4"/>
<path d="M0 16C0 16 6 5 16 5C26 5 32 16 32 16C32 16 26 27 16 27C6 27 0 16 0 16ZM16 23C17.8565 23 19.637 22.2625 20.9497 20.9497C22.2625 19.637 23 17.8565 23 16C23 14.1435 22.2625 12.363 20.9497 11.0503C19.637 9.7375 17.8565 9 16 9C14.1435 9 12.363 9.7375 11.0503 11.0503C9.7375 12.363 9 14.1435 9 16C9 17.8565 9.7375 19.637 11.0503 20.9497C12.363 22.2625 14.1435 23 16 23Z" fill="#1C93A4"/>
</g>
</g>
</svg>
