<svg width="20" height="20" viewBox="0 0 20 20" fill="none" xmlns="http://www.w3.org/2000/svg">
<g id="x-lg">
<g id="Vector">
<path fill-rule="evenodd" clip-rule="evenodd" d="M17.3176 2.68264C17.3758 2.7407 17.422 2.80967 17.4535 2.8856C17.485 2.96153 17.5013 3.04293 17.5013 3.12514C17.5013 3.20735 17.485 3.28875 17.4535 3.36468C17.422 3.44061 17.3758 3.50958 17.3176 3.56764L3.56764 17.3176C3.45028 17.435 3.29111 17.5009 3.12514 17.5009C2.95917 17.5009 2.8 17.435 2.68264 17.3176C2.56528 17.2003 2.49935 17.0411 2.49935 16.8751C2.49935 16.7092 2.56528 16.55 2.68264 16.4326L16.4326 2.68264C16.4907 2.62444 16.5597 2.57826 16.6356 2.54675C16.7115 2.51524 16.7929 2.49902 16.8751 2.49902C16.9573 2.49902 17.0388 2.51524 17.1147 2.54675C17.1906 2.57826 17.2596 2.62444 17.3176 2.68264Z" fill="#EF4949"/>
<path fill-rule="evenodd" clip-rule="evenodd" d="M2.68264 2.68264C2.62444 2.7407 2.57826 2.80967 2.54675 2.8856C2.51524 2.96153 2.49902 3.04293 2.49902 3.12514C2.49902 3.20735 2.51524 3.28875 2.54675 3.36468C2.57826 3.44061 2.62444 3.50958 2.68264 3.56764L16.4326 17.3176C16.55 17.435 16.7092 17.5009 16.8751 17.5009C17.0411 17.5009 17.2003 17.435 17.3176 17.3176C17.435 17.2003 17.5009 17.0411 17.5009 16.8751C17.5009 16.7092 17.435 16.55 17.3176 16.4326L3.56764 2.68264C3.50958 2.62444 3.44061 2.57826 3.36468 2.54675C3.28875 2.51524 3.20735 2.49902 3.12514 2.49902C3.04293 2.49902 2.96153 2.51524 2.8856 2.54675C2.80967 2.57826 2.7407 2.62444 2.68264 2.68264Z" fill="#EF4949"/>
</g>
</g>
</svg>
