<svg width="254" height="100" viewBox="0 0 254 100" fill="none" xmlns="http://www.w3.org/2000/svg">
<g clip-path="url(#clip0_14_14185)">
<path d="M4.16016 92.3125H6.04297C6.47005 92.3125 6.83073 92.3776 7.125 92.5078C7.42188 92.638 7.64714 92.8307 7.80078 93.0859C7.95703 93.3385 8.03516 93.6497 8.03516 94.0195C8.03516 94.2799 7.98177 94.5182 7.875 94.7344C7.77083 94.9479 7.61979 95.1302 7.42188 95.2812C7.22656 95.4297 6.99219 95.5404 6.71875 95.6133L6.50781 95.6953H4.73828L4.73047 95.082H6.06641C6.33724 95.082 6.5625 95.0352 6.74219 94.9414C6.92188 94.8451 7.05729 94.7161 7.14844 94.5547C7.23958 94.3932 7.28516 94.2148 7.28516 94.0195C7.28516 93.8008 7.24219 93.6094 7.15625 93.4453C7.07031 93.2812 6.9349 93.1549 6.75 93.0664C6.56771 92.9753 6.33203 92.9297 6.04297 92.9297H4.91406V98H4.16016V92.3125ZM7.48438 98L6.10156 95.4219L6.88672 95.418L8.28906 97.9531V98H7.48438ZM12.7784 92.3125V98H12.0245V92.3125H12.7784ZM21.2327 95.168V97.25C21.1623 97.3542 21.0504 97.4714 20.8967 97.6016C20.7431 97.7292 20.5308 97.8411 20.26 97.9375C19.9918 98.0312 19.6454 98.0781 19.2209 98.0781C18.8746 98.0781 18.5556 98.0182 18.2639 97.8984C17.9748 97.776 17.7235 97.599 17.51 97.3672C17.2991 97.1328 17.135 96.849 17.0178 96.5156C16.9032 96.1797 16.8459 95.7995 16.8459 95.375V94.9336C16.8459 94.5091 16.8954 94.1302 16.9944 93.7969C17.0959 93.4635 17.2444 93.181 17.4397 92.9492C17.635 92.7148 17.8746 92.5378 18.1584 92.418C18.4423 92.2956 18.7678 92.2344 19.135 92.2344C19.5699 92.2344 19.9332 92.3099 20.2248 92.4609C20.5191 92.6094 20.7483 92.8151 20.9123 93.0781C21.079 93.3411 21.1858 93.6406 21.2327 93.9766H20.4788C20.4449 93.7708 20.3772 93.5833 20.2756 93.4141C20.1767 93.2448 20.0347 93.1094 19.8498 93.0078C19.6649 92.9036 19.4267 92.8516 19.135 92.8516C18.872 92.8516 18.6441 92.8997 18.4514 92.9961C18.2587 93.0924 18.0998 93.2305 17.9748 93.4102C17.8498 93.5898 17.7561 93.8073 17.6936 94.0625C17.6337 94.3177 17.6038 94.6055 17.6038 94.9258V95.375C17.6038 95.7031 17.6415 95.9961 17.717 96.2539C17.7952 96.5117 17.9058 96.7318 18.0491 96.9141C18.1923 97.0938 18.3629 97.2305 18.5608 97.3242C18.7613 97.418 18.9827 97.4648 19.2248 97.4648C19.4931 97.4648 19.7105 97.4427 19.8772 97.3984C20.0439 97.3516 20.1741 97.2969 20.2678 97.2344C20.3616 97.1693 20.4332 97.1081 20.4827 97.0508V95.7773H19.1663V95.168H21.2327ZM29.0775 94.7578V95.3711H25.9994V94.7578H29.0775ZM26.1166 92.3125V98H25.3627V92.3125H26.1166ZM29.7337 92.3125V98H28.9837V92.3125H29.7337ZM35.938 92.3125V98H35.1958V92.3125H35.938ZM37.7661 92.3125V92.9297H33.3716V92.3125H37.7661ZM49.6316 96.1914H50.3816C50.3425 96.5508 50.2396 96.8724 50.073 97.1562C49.9063 97.4401 49.6706 97.6654 49.3659 97.832C49.0612 97.9961 48.681 98.0781 48.2253 98.0781C47.892 98.0781 47.5886 98.0156 47.3152 97.8906C47.0443 97.7656 46.8112 97.5885 46.6159 97.3594C46.4206 97.1276 46.2696 96.8503 46.1628 96.5273C46.0586 96.2018 46.0066 95.8398 46.0066 95.4414V94.875C46.0066 94.4766 46.0586 94.1159 46.1628 93.793C46.2696 93.4674 46.4219 93.1888 46.6198 92.957C46.8204 92.7253 47.0612 92.5469 47.3425 92.4219C47.6237 92.2969 47.9402 92.2344 48.2917 92.2344C48.7214 92.2344 49.0847 92.3151 49.3816 92.4766C49.6784 92.638 49.9089 92.862 50.073 93.1484C50.2396 93.4323 50.3425 93.7617 50.3816 94.1367H49.6316C49.5951 93.8711 49.5274 93.6432 49.4284 93.4531C49.3295 93.2604 49.1889 93.112 49.0066 93.0078C48.8243 92.9036 48.586 92.8516 48.2917 92.8516C48.0391 92.8516 47.8165 92.8997 47.6237 92.9961C47.4336 93.0924 47.2735 93.2292 47.1433 93.4062C47.0157 93.5833 46.9193 93.7956 46.8542 94.043C46.7891 94.2904 46.7566 94.5651 46.7566 94.8672V95.4414C46.7566 95.7201 46.7852 95.9818 46.8425 96.2266C46.9024 96.4714 46.9922 96.6862 47.112 96.8711C47.2318 97.056 47.3842 97.2018 47.5691 97.3086C47.754 97.4128 47.9727 97.4648 48.2253 97.4648C48.5456 97.4648 48.8008 97.4141 48.9909 97.3125C49.181 97.2109 49.3243 97.0651 49.4206 96.875C49.5196 96.6849 49.5899 96.457 49.6316 96.1914ZM56.3944 92.8164L54.5116 98H53.742L55.91 92.3125H56.4061L56.3944 92.8164ZM57.9725 98L56.0858 92.8164L56.0741 92.3125H56.5702L58.7459 98H57.9725ZM57.8748 95.8945V96.5117H54.6795V95.8945H57.8748ZM62.3877 92.3125H64.2705C64.6976 92.3125 65.0582 92.3776 65.3525 92.5078C65.6494 92.638 65.8746 92.8307 66.0283 93.0859C66.1845 93.3385 66.2627 93.6497 66.2627 94.0195C66.2627 94.2799 66.2093 94.5182 66.1025 94.7344C65.9983 94.9479 65.8473 95.1302 65.6494 95.2812C65.4541 95.4297 65.2197 95.5404 64.9463 95.6133L64.7353 95.6953H62.9658L62.958 95.082H64.2939C64.5647 95.082 64.79 95.0352 64.9697 94.9414C65.1494 94.8451 65.2848 94.7161 65.3759 94.5547C65.4671 94.3932 65.5127 94.2148 65.5127 94.0195C65.5127 93.8008 65.4697 93.6094 65.3838 93.4453C65.2978 93.2812 65.1624 93.1549 64.9775 93.0664C64.7952 92.9753 64.5595 92.9297 64.2705 92.9297H63.1416V98H62.3877V92.3125ZM65.7119 98L64.3291 95.4219L65.1142 95.418L66.5166 97.9531V98H65.7119ZM73.8106 97.3867V98H70.7989V97.3867H73.8106ZM70.9512 92.3125V98H70.1973V92.3125H70.9512ZM73.4122 94.7578V95.3711H70.7989V94.7578H73.4122ZM73.7716 92.3125V92.9297H70.7989V92.3125H73.7716Z" fill="#63B1BC"/>
<circle cx="81.5" cy="95.5" r="1" fill="#63B1BC"/>
<path d="M89.1602 92.3125H91.043C91.4701 92.3125 91.8307 92.3776 92.125 92.5078C92.4219 92.638 92.6471 92.8307 92.8008 93.0859C92.957 93.3385 93.0352 93.6497 93.0352 94.0195C93.0352 94.2799 92.9818 94.5182 92.875 94.7344C92.7708 94.9479 92.6198 95.1302 92.4219 95.2812C92.2266 95.4297 91.9922 95.5404 91.7188 95.6133L91.5078 95.6953H89.7383L89.7305 95.082H91.0664C91.3372 95.082 91.5625 95.0352 91.7422 94.9414C91.9219 94.8451 92.0573 94.7161 92.1484 94.5547C92.2396 94.3932 92.2852 94.2148 92.2852 94.0195C92.2852 93.8008 92.2422 93.6094 92.1562 93.4453C92.0703 93.2812 91.9349 93.1549 91.75 93.0664C91.5677 92.9753 91.332 92.9297 91.043 92.9297H89.9141V98H89.1602V92.3125ZM92.4844 98L91.1016 95.4219L91.8867 95.418L93.2891 97.9531V98H92.4844ZM97.7784 92.3125V98H97.0245V92.3125H97.7784ZM106.233 95.168V97.25C106.162 97.3542 106.05 97.4714 105.897 97.6016C105.743 97.7292 105.531 97.8411 105.26 97.9375C104.992 98.0312 104.645 98.0781 104.221 98.0781C103.875 98.0781 103.556 98.0182 103.264 97.8984C102.975 97.776 102.724 97.599 102.51 97.3672C102.299 97.1328 102.135 96.849 102.018 96.5156C101.903 96.1797 101.846 95.7995 101.846 95.375V94.9336C101.846 94.5091 101.895 94.1302 101.994 93.7969C102.096 93.4635 102.244 93.181 102.44 92.9492C102.635 92.7148 102.875 92.5378 103.158 92.418C103.442 92.2956 103.768 92.2344 104.135 92.2344C104.57 92.2344 104.933 92.3099 105.225 92.4609C105.519 92.6094 105.748 92.8151 105.912 93.0781C106.079 93.3411 106.186 93.6406 106.233 93.9766H105.479C105.445 93.7708 105.377 93.5833 105.276 93.4141C105.177 93.2448 105.035 93.1094 104.85 93.0078C104.665 92.9036 104.427 92.8516 104.135 92.8516C103.872 92.8516 103.644 92.8997 103.451 92.9961C103.259 93.0924 103.1 93.2305 102.975 93.4102C102.85 93.5898 102.756 93.8073 102.694 94.0625C102.634 94.3177 102.604 94.6055 102.604 94.9258V95.375C102.604 95.7031 102.642 95.9961 102.717 96.2539C102.795 96.5117 102.906 96.7318 103.049 96.9141C103.192 97.0938 103.363 97.2305 103.561 97.3242C103.761 97.418 103.983 97.4648 104.225 97.4648C104.493 97.4648 104.711 97.4427 104.877 97.3984C105.044 97.3516 105.174 97.2969 105.268 97.2344C105.362 97.1693 105.433 97.1081 105.483 97.0508V95.7773H104.166V95.168H106.233ZM114.077 94.7578V95.3711H110.999V94.7578H114.077ZM111.117 92.3125V98H110.363V92.3125H111.117ZM114.734 92.3125V98H113.984V92.3125H114.734ZM120.938 92.3125V98H120.196V92.3125H120.938ZM122.766 92.3125V92.9297H118.372V92.3125H122.766ZM133.296 95.7695H131.776V95.1562H133.296C133.59 95.1562 133.828 95.1094 134.01 95.0156C134.193 94.9219 134.326 94.7917 134.409 94.625C134.495 94.4583 134.538 94.2682 134.538 94.0547C134.538 93.8594 134.495 93.6758 134.409 93.5039C134.326 93.332 134.193 93.194 134.01 93.0898C133.828 92.9831 133.59 92.9297 133.296 92.9297H131.952V98H131.198V92.3125H133.296C133.725 92.3125 134.089 92.3867 134.385 92.5352C134.682 92.6836 134.908 92.8893 135.061 93.1523C135.215 93.4128 135.292 93.7109 135.292 94.0469C135.292 94.4115 135.215 94.7227 135.061 94.9805C134.908 95.2383 134.682 95.4349 134.385 95.5703C134.089 95.7031 133.725 95.7695 133.296 95.7695ZM142.574 97.3867V98H139.73V97.3867H142.574ZM139.879 92.3125V98H139.125V92.3125H139.879ZM148.501 92.8164L146.618 98H145.849L148.017 92.3125H148.513L148.501 92.8164ZM150.079 98L148.192 92.8164L148.181 92.3125H148.677L150.853 98H150.079ZM149.981 95.8945V96.5117H146.786V95.8945H149.981ZM157.881 96.1914H158.631C158.592 96.5508 158.489 96.8724 158.322 97.1562C158.156 97.4401 157.92 97.6654 157.615 97.832C157.311 97.9961 156.93 98.0781 156.475 98.0781C156.141 98.0781 155.838 98.0156 155.565 97.8906C155.294 97.7656 155.061 97.5885 154.865 97.3594C154.67 97.1276 154.519 96.8503 154.412 96.5273C154.308 96.2018 154.256 95.8398 154.256 95.4414V94.875C154.256 94.4766 154.308 94.1159 154.412 93.793C154.519 93.4674 154.671 93.1888 154.869 92.957C155.07 92.7253 155.311 92.5469 155.592 92.4219C155.873 92.2969 156.19 92.2344 156.541 92.2344C156.971 92.2344 157.334 92.3151 157.631 92.4766C157.928 92.638 158.158 92.862 158.322 93.1484C158.489 93.4323 158.592 93.7617 158.631 94.1367H157.881C157.844 93.8711 157.777 93.6432 157.678 93.4531C157.579 93.2604 157.438 93.112 157.256 93.0078C157.074 92.9036 156.835 92.8516 156.541 92.8516C156.288 92.8516 156.066 92.8997 155.873 92.9961C155.683 93.0924 155.523 93.2292 155.393 93.4062C155.265 93.5833 155.169 93.7956 155.104 94.043C155.038 94.2904 155.006 94.5651 155.006 94.8672V95.4414C155.006 95.7201 155.035 95.9818 155.092 96.2266C155.152 96.4714 155.242 96.6862 155.361 96.8711C155.481 97.056 155.634 97.2018 155.818 97.3086C156.003 97.4128 156.222 97.4648 156.475 97.4648C156.795 97.4648 157.05 97.4141 157.24 97.3125C157.43 97.2109 157.574 97.0651 157.67 96.875C157.769 96.6849 157.839 96.457 157.881 96.1914ZM166.152 97.3867V98H163.14V97.3867H166.152ZM163.292 92.3125V98H162.538V92.3125H163.292ZM165.753 94.7578V95.3711H163.14V94.7578H165.753ZM166.113 92.3125V92.9297H163.14V92.3125H166.113Z" fill="#63B1BC"/>
<circle cx="173.5" cy="95.5" r="1" fill="#63B1BC"/>
<path d="M181.16 92.3125H183.043C183.47 92.3125 183.831 92.3776 184.125 92.5078C184.422 92.638 184.647 92.8307 184.801 93.0859C184.957 93.3385 185.035 93.6497 185.035 94.0195C185.035 94.2799 184.982 94.5182 184.875 94.7344C184.771 94.9479 184.62 95.1302 184.422 95.2812C184.227 95.4297 183.992 95.5404 183.719 95.6133L183.508 95.6953H181.738L181.73 95.082H183.066C183.337 95.082 183.562 95.0352 183.742 94.9414C183.922 94.8451 184.057 94.7161 184.148 94.5547C184.24 94.3932 184.285 94.2148 184.285 94.0195C184.285 93.8008 184.242 93.6094 184.156 93.4453C184.07 93.2812 183.935 93.1549 183.75 93.0664C183.568 92.9753 183.332 92.9297 183.043 92.9297H181.914V98H181.16V92.3125ZM184.484 98L183.102 95.4219L183.887 95.418L185.289 97.9531V98H184.484ZM189.778 92.3125V98H189.025V92.3125H189.778ZM198.233 95.168V97.25C198.162 97.3542 198.05 97.4714 197.897 97.6016C197.743 97.7292 197.531 97.8411 197.26 97.9375C196.992 98.0312 196.645 98.0781 196.221 98.0781C195.875 98.0781 195.556 98.0182 195.264 97.8984C194.975 97.776 194.724 97.599 194.51 97.3672C194.299 97.1328 194.135 96.849 194.018 96.5156C193.903 96.1797 193.846 95.7995 193.846 95.375V94.9336C193.846 94.5091 193.895 94.1302 193.994 93.7969C194.096 93.4635 194.244 93.181 194.44 92.9492C194.635 92.7148 194.875 92.5378 195.158 92.418C195.442 92.2956 195.768 92.2344 196.135 92.2344C196.57 92.2344 196.933 92.3099 197.225 92.4609C197.519 92.6094 197.748 92.8151 197.912 93.0781C198.079 93.3411 198.186 93.6406 198.233 93.9766H197.479C197.445 93.7708 197.377 93.5833 197.276 93.4141C197.177 93.2448 197.035 93.1094 196.85 93.0078C196.665 92.9036 196.427 92.8516 196.135 92.8516C195.872 92.8516 195.644 92.8997 195.451 92.9961C195.259 93.0924 195.1 93.2305 194.975 93.4102C194.85 93.5898 194.756 93.8073 194.694 94.0625C194.634 94.3177 194.604 94.6055 194.604 94.9258V95.375C194.604 95.7031 194.642 95.9961 194.717 96.2539C194.795 96.5117 194.906 96.7318 195.049 96.9141C195.192 97.0938 195.363 97.2305 195.561 97.3242C195.761 97.418 195.983 97.4648 196.225 97.4648C196.493 97.4648 196.711 97.4427 196.877 97.3984C197.044 97.3516 197.174 97.2969 197.268 97.2344C197.362 97.1693 197.433 97.1081 197.483 97.0508V95.7773H196.166V95.168H198.233ZM206.077 94.7578V95.3711H202.999V94.7578H206.077ZM203.117 92.3125V98H202.363V92.3125H203.117ZM206.734 92.3125V98H205.984V92.3125H206.734ZM212.938 92.3125V98H212.196V92.3125H212.938ZM214.766 92.3125V92.9297H210.372V92.3125H214.766ZM225.143 92.3125V98H224.401V92.3125H225.143ZM226.971 92.3125V92.9297H222.577V92.3125H226.971ZM231.504 92.3125V98H230.75V92.3125H231.504ZM235.993 92.3125H236.724L238.587 96.9492L240.446 92.3125H241.181L238.868 98H238.298L235.993 92.3125ZM235.755 92.3125H236.399L236.505 95.7812V98H235.755V92.3125ZM240.77 92.3125H241.415V98H240.665V95.7812L240.77 92.3125ZM249.232 97.3867V98H246.221V97.3867H249.232ZM246.373 92.3125V98H245.619V92.3125H246.373ZM248.834 94.7578V95.3711H246.221V94.7578H248.834ZM249.193 92.3125V92.9297H246.221V92.3125H249.193Z" fill="#63B1BC"/>
<path d="M253.981 48.5318C253.354 41.7918 251.996 36.9388 247.08 31.3753C242.165 25.8118 235.703 21.4211 228.26 20.3462C220.817 19.2712 213.285 20.6994 206.931 24.6353C200.577 28.5712 196.562 34.7574 194.384 41.7917C192.207 48.8261 192.579 55.9097 195.636 62.6246C198.693 69.3396 203.886 74.8101 210.692 77.9429C217.498 81.0758 225.121 81.6193 231.394 80.3938C237.249 78.8013 243.052 75.6579 247.263 71.2835C248.959 69.5223 248.52 66.7895 246.605 65.2576C244.842 63.8476 242.209 64.239 240.615 65.8287C237.298 69.136 232.7 72.0146 228.888 72.4284C223.869 72.973 219.402 72.8652 214.459 70.5902C209.517 68.3151 205.677 63.8501 203.167 58.9483C201.168 54.5576 201.913 46.0809 201.913 46.0809C203.167 39.3408 206.887 34.2871 212.577 30.7626C218.015 27.3943 222.643 27.4854 227.537 28.1247C228.437 28.2423 229.329 28.4309 230.188 28.7193C235.526 30.5129 237.897 32.9101 240.807 36.8899C243.266 39.6729 244.137 42.5439 244.955 46.0809H201.913L201.226 53.4337H246.34C247.248 53.4337 248.16 53.3878 249.047 53.1953C252.018 52.5508 254.229 51.1946 253.981 48.5318Z" fill="#63B1BC"/>
<path d="M172 22.2121C172 19.8691 174.015 17.9697 176.5 17.9697C178.985 17.9697 181 19.8691 181 22.2121V76.7576C181 79.1006 178.985 81 176.5 81C174.015 81 172 79.1006 172 76.7576V22.2121Z" fill="#63B1BC"/>
<path d="M172 5.24242C172 2.8994 174.015 1 176.5 1C178.985 1 181 2.8994 181 5.24242C181 7.58545 178.985 9.48485 176.5 9.48485C174.015 9.48485 172 7.58545 172 5.24242Z" fill="#63B1BC"/>
<path d="M160 50.697C160 67.4329 146.345 81 129.5 81C112.655 81 99 67.4329 99 50.697C99 33.9611 112.655 20.3939 129.5 20.3939C146.345 20.3939 160 33.9611 160 50.697ZM117.329 50.697C117.329 57.3756 122.778 62.7898 129.5 62.7898C136.222 62.7898 141.671 57.3756 141.671 50.697C141.671 44.0183 136.222 38.6042 129.5 38.6042C122.778 38.6042 117.329 44.0183 117.329 50.697Z" fill="#63B1BC"/>
<path d="M99 10.0909C99 5.07014 103.097 1 108.15 1C113.203 1 117.3 5.07014 117.3 10.0909V71.9091C117.3 76.9299 113.203 81 108.15 81C103.097 81 99 76.9299 99 71.9091V10.0909Z" fill="#63B1BC"/>
<path d="M71 10.0909C71 5.07014 75.0294 1 80 1C84.9706 1 89 5.07014 89 10.0909V71.9091C89 76.9299 84.9706 81 80 81C75.0294 81 71 76.9299 71 71.9091V10.0909Z" fill="#63B1BC"/>
<path d="M61 50.5C61 67.3447 47.3447 81 30.5 81C13.6553 81 0 67.3447 0 50.5C0 33.6553 13.6553 20 30.5 20C47.3447 20 61 33.6553 61 50.5ZM18.2361 50.5C18.2361 57.2731 23.7269 62.7639 30.5 62.7639C37.2731 62.7639 42.7639 57.2731 42.7639 50.5C42.7639 43.7269 37.2731 38.2361 30.5 38.2361C23.7269 38.2361 18.2361 43.7269 18.2361 50.5Z" fill="#63B1BC"/>
<path d="M42.7 29.15C42.7 24.0966 46.7966 20 51.85 20C56.9034 20 61 24.0966 61 29.15V71.85C61 76.9034 56.9034 81 51.85 81C46.7966 81 42.7 76.9034 42.7 71.85V29.15Z" fill="#63B1BC"/>
</g>
<defs>
<clipPath id="clip0_14_14185">
<rect width="254" height="100" fill="white"/>
</clipPath>
</defs>
</svg>
