<svg width="267" height="67" viewBox="0 0 267 67" fill="none" xmlns="http://www.w3.org/2000/svg">
<path opacity="0.5" d="M2.31434 32.7403C1.61862 32.2906 0.690043 32.49 0.240296 33.1857C-0.20945 33.8814 -0.0100532 34.81 0.685662 35.2597L2.31434 32.7403ZM104 63L103.589 61.5574L104 63ZM170 4.00002L169.624 2.54778L170 4.00002ZM265.568 21.8883C266.335 21.5747 266.702 20.6989 266.388 19.9321L261.278 7.43689C260.964 6.67012 260.088 6.30276 259.321 6.61638C258.555 6.93 258.187 7.80583 258.501 8.5726L263.044 19.6795L251.937 24.2223C251.17 24.5359 250.803 25.4118 251.116 26.1785C251.43 26.9453 252.306 27.3126 253.073 26.999L265.568 21.8883ZM6.55915 38.8228C7.2746 39.2405 8.19315 38.9991 8.6108 38.2836C9.02846 37.5682 8.78705 36.6496 8.07161 36.232L6.55915 38.8228ZM19.948 42.7582C19.2123 42.3774 18.3072 42.6651 17.9264 43.4009C17.5456 44.1366 17.8333 45.0417 18.5691 45.4225L19.948 42.7582ZM30.9076 51.419C31.6619 51.7616 32.551 51.4278 32.8936 50.6736C33.2362 49.9193 32.9024 49.0301 32.1482 48.6875L30.9076 51.419ZM44.6422 53.934C43.8689 53.6368 43.0011 54.0227 42.7039 54.796C42.4067 55.5693 42.7926 56.4371 43.5659 56.7343L44.6422 53.934ZM56.5669 61.21C57.36 61.4494 58.1969 61.0005 58.4363 60.2074C58.6757 59.4143 58.2268 58.5774 57.4337 58.338L56.5669 61.21ZM70.5129 61.6342C69.7002 61.4732 68.9109 62.0014 68.75 62.8141C68.589 63.6267 69.1172 64.416 69.9299 64.577L70.5129 61.6342ZM83.6404 66.3871C84.4674 66.4357 85.1773 65.8047 85.2259 64.9777C85.2745 64.1507 84.6435 63.4409 83.8165 63.3922L83.6404 66.3871ZM97.1253 62.9227C96.3054 63.0408 95.7364 63.8012 95.8545 64.6212C95.9726 65.4412 96.733 66.0101 97.553 65.892L97.1253 62.9227ZM111.734 61.6456C112.479 61.2816 112.787 60.3833 112.423 59.6391C112.059 58.8949 111.161 58.5867 110.416 58.9506L111.734 61.6456ZM122.169 50.3535C121.586 50.9428 121.592 51.8925 122.181 52.4748C122.771 53.057 123.721 53.0513 124.303 52.462L122.169 50.3535ZM133.912 40.4383C134.379 39.7545 134.204 38.821 133.52 38.3534C132.836 37.8857 131.903 38.061 131.435 38.7448L133.912 40.4383ZM139.817 26.126C139.347 26.8087 139.52 27.7425 140.203 28.2119C140.885 28.6813 141.819 28.5084 142.289 27.8258L139.817 26.126ZM151.617 16.285C152.205 15.702 152.21 14.7522 151.627 14.1637C151.044 13.5752 150.094 13.5707 149.506 14.1537L151.617 16.285ZM162.234 5.17343C161.482 5.52097 161.154 6.41232 161.501 7.16433C161.849 7.91633 162.74 8.24421 163.492 7.89667L162.234 5.17343ZM178.163 4.05821C178.986 3.96732 179.58 3.22611 179.489 2.40269C179.398 1.57926 178.657 0.985431 177.834 1.07633L178.163 4.05821ZM194.369 0.874598C193.543 0.818064 192.827 1.44224 192.77 2.26874C192.714 3.09523 193.338 3.81107 194.164 3.8676L194.369 0.874598ZM210.162 5.88349C210.978 6.0274 211.756 5.48269 211.9 4.66686C212.044 3.85103 211.499 3.073 210.683 2.9291L210.162 5.88349ZM226.707 6.39342C225.903 6.19051 225.088 6.67714 224.885 7.48033C224.682 8.28352 225.169 9.09913 225.972 9.30204L226.707 6.39342ZM241.569 13.728C242.36 13.9757 243.201 13.5357 243.449 12.7452C243.697 11.9547 243.257 11.113 242.466 10.8653L241.569 13.728ZM257.943 16.1488C257.166 15.8611 256.303 16.2577 256.015 17.0346C255.727 17.8114 256.124 18.6744 256.901 18.9621L257.943 16.1488ZM1.5 34C0.685662 35.2597 0.685718 35.2598 0.685781 35.2598C0.685813 35.2598 0.685885 35.2599 0.685949 35.2599C0.686077 35.26 0.686238 35.2601 0.68643 35.2602C0.686815 35.2605 0.687329 35.2608 0.687972 35.2612C0.689258 35.262 0.691059 35.2632 0.693372 35.2647C0.697999 35.2677 0.704678 35.272 0.713392 35.2776C0.730821 35.2888 0.756392 35.3052 0.789977 35.3267C0.857146 35.3696 0.95637 35.4329 1.08662 35.5152C1.34711 35.6799 1.73171 35.9212 2.23214 36.2301C3.23298 36.8478 4.69738 37.736 6.55915 38.8228L8.07161 36.232C6.2328 35.1586 4.78951 34.2831 3.8078 33.6772C3.31696 33.3742 2.94158 33.1387 2.6899 32.9796C2.56406 32.9 2.46916 32.8395 2.40622 32.7993C2.37475 32.7792 2.35127 32.7641 2.33592 32.7542C2.32824 32.7493 2.32259 32.7456 2.31899 32.7433C2.31719 32.7422 2.3159 32.7413 2.31512 32.7408C2.31473 32.7406 2.31447 32.7404 2.31434 32.7403C2.31428 32.7403 2.31425 32.7403 2.31424 32.7403C2.31424 32.7403 2.31427 32.7403 2.31427 32.7403C2.3143 32.7403 2.31434 32.7403 1.5 34ZM18.5691 45.4225C22.2757 47.3409 26.4309 49.3858 30.9076 51.419L32.1482 48.6875C27.7241 46.6783 23.6153 44.6562 19.948 42.7582L18.5691 45.4225ZM43.5659 56.7343C47.7719 58.3509 52.1317 59.8714 56.5669 61.21L57.4337 58.338C53.0786 57.0235 48.7891 55.5279 44.6422 53.934L43.5659 56.7343ZM69.9299 64.577C74.522 65.4867 79.1203 66.1212 83.6404 66.3871L83.8165 63.3922C79.4545 63.1357 74.9935 62.5218 70.5129 61.6342L69.9299 64.577ZM97.553 65.892C99.891 65.5553 102.182 65.0777 104.411 64.4426L103.589 61.5574C101.5 62.1527 99.341 62.6036 97.1253 62.9227L97.553 65.892ZM104.411 64.4426C107.044 63.6926 109.475 62.7506 111.734 61.6456L110.416 58.9506C108.317 59.9774 106.052 60.8558 103.589 61.5574L104.411 64.4426ZM124.303 52.462C127.933 48.7879 131.025 44.6599 133.912 40.4383L131.435 38.7448C128.59 42.9052 125.615 46.8651 122.169 50.3535L124.303 52.462ZM142.289 27.8258C145.15 23.6643 148.144 19.7257 151.617 16.285L149.506 14.1537C145.839 17.7857 142.723 21.8988 139.817 26.126L142.289 27.8258ZM163.492 7.89667C165.608 6.91899 167.891 6.09456 170.376 5.45226L169.624 2.54778C166.968 3.2347 164.514 4.11949 162.234 5.17343L163.492 7.89667ZM170.376 5.45226C172.833 4.81696 175.439 4.35894 178.163 4.05821L177.834 1.07633C174.989 1.39042 172.239 1.87167 169.624 2.54778L170.376 5.45226ZM194.164 3.8676C199.416 4.22685 204.808 4.93911 210.162 5.88349L210.683 2.9291C205.247 1.97021 199.748 1.2425 194.369 0.874598L194.164 3.8676ZM225.972 9.30204C231.523 10.7043 236.8 12.2335 241.569 13.728L242.466 10.8653C237.653 9.35688 232.321 7.81169 226.707 6.39342L225.972 9.30204ZM256.901 18.9621C259.27 19.8394 261.154 20.5714 262.443 21.0832C263.088 21.3391 263.584 21.54 263.918 21.6764C264.085 21.7447 264.212 21.7968 264.296 21.8316C264.338 21.8491 264.369 21.8622 264.39 21.8708C264.4 21.8751 264.408 21.8784 264.413 21.8804C264.416 21.8815 264.417 21.8822 264.419 21.8827C264.419 21.8829 264.419 21.8831 264.42 21.8832C264.42 21.8832 264.42 21.8832 264.42 21.8832C264.42 21.8832 264.42 21.8833 264.42 21.8832C264.42 21.8832 264.42 21.8832 265 20.5C265.58 19.1167 265.58 19.1167 265.58 19.1167C265.58 19.1166 265.58 19.1166 265.58 19.1166C265.58 19.1165 265.58 19.1164 265.579 19.1163C265.579 19.1161 265.578 19.1159 265.577 19.1155C265.576 19.1149 265.573 19.1139 265.57 19.1126C265.564 19.1101 265.556 19.1065 265.544 19.1017C265.521 19.0922 265.488 19.0782 265.444 19.0599C265.355 19.0233 265.224 18.9694 265.053 18.8993C264.71 18.7592 264.205 18.5546 263.55 18.2948C262.241 17.7753 260.336 17.0349 257.943 16.1488L256.901 18.9621Z" fill="white"/>
</svg>
